<svg width="1280" height="720" viewBox="0 0 1280 720" fill="none" xmlns="http://www.w3.org/2000/svg">
  <defs>
    <linearGradient id="paint0" x1="120" y1="80" x2="1160" y2="620" gradientUnits="userSpaceOnUse">
      <stop stop-color="#FFFFFF" stop-opacity="0.25"/>
      <stop offset="1" stop-color="#A5B4FC" stop-opacity="0.08"/>
    </linearGradient>
    <radialGradient id="paint1" cx="0" cy="0" r="1" gradientUnits="userSpaceOnUse" gradientTransform="translate(340 180) rotate(30) scale(380 320)">
      <stop stop-color="#FFFFFF" stop-opacity="0.45"/>
      <stop offset="1" stop-color="#111827" stop-opacity="0"/>
    </radialGradient>
  </defs>
  <rect width="1280" height="720" rx="42" fill="#0D0F14"/>
  <rect x="60" y="80" width="1160" height="520" rx="32" stroke="url(#paint0)" stroke-width="3" fill="#0F1118"/>
  <rect x="100" y="140" width="1080" height="320" rx="30" fill="url(#paint1)"/>
  <path d="M140 390C220 320 380 300 520 330C720 370 860 350 1000 280" stroke="#9CA3AF" stroke-opacity="0.4" stroke-width="20" stroke-linecap="round"/>
  <path d="M140 360C220 290 380 270 520 300C720 340 860 320 1000 250" stroke="#FFFFFF" stroke-opacity="0.7" stroke-width="8" stroke-linecap="round"/>
  <circle cx="240" cy="350" r="14" fill="#FACC15"/>
  <circle cx="520" cy="310" r="12" fill="#F472B6"/>
  <circle cx="820" cy="320" r="12" fill="#60A5FA"/>
  <circle cx="1040" cy="250" r="14" fill="#34D399"/>
  <text x="200" y="500" fill="#E5E7EB" font-size="36" font-family="'Inter', system-ui" font-weight="700">105 ft seamless cyc. Fresh coat before you roll.</text>
</svg>
